<svg width="111" height="25" viewBox="0 0 111 25" fill="none" xmlns="http://www.w3.org/2000/svg">
<g clip-path="url(#clip0_1417_4988)">
<path fill-rule="evenodd" clip-rule="evenodd" d="M1.58791 22.1L9.68058 19.3295L17.7737 22.1002L17.4578 21.7822C15.9245 20.2398 13.8318 18.1462 11.5193 15.8379C10.9192 15.2389 10.3044 14.6255 9.68075 14.0036C9.05712 14.6255 8.44228 15.2389 7.8422 15.8379C5.52967 18.1462 3.43696 20.2398 1.90372 21.7822C1.7956 21.8909 1.69029 21.9969 1.58791 22.1ZM8.10078 12.4284C7.47848 13.049 6.86495 13.6611 6.26609 14.2589C3.95301 16.5678 1.85787 18.6639 0.321539 20.2093C0.252712 20.2785 0.184994 20.3467 0.118417 20.4137L2.83359 12.4825L0.0830078 4.44798C2.50004 6.85103 5.33673 9.67377 8.10078 12.4284ZM11.2607 12.4284C11.883 13.049 12.4965 13.6611 13.0954 14.2589C15.4085 16.5678 17.5036 18.6639 19.04 20.2093L19.2426 20.4132L16.5276 12.4825L19.278 4.44847C16.8611 6.85141 14.0246 9.67396 11.2607 12.4284ZM17.6712 2.90002C15.2597 5.2976 12.4341 8.1093 9.68075 10.8533C6.92745 8.10936 4.10195 5.29774 1.69048 2.9002L9.68058 5.63556L17.6712 2.90002Z" fill="black"/>
<path d="M106.253 18.8284V9.46407H107.808V11.1041C108.04 10.5773 108.386 10.1694 108.845 9.88045C109.304 9.58587 109.839 9.43008 110.451 9.41309C110.649 9.41309 110.805 9.41875 110.918 9.43008V11.1211C110.476 11.0758 110.182 11.0531 110.034 11.0531C109.287 11.0531 108.734 11.2797 108.377 11.7329C108.02 12.1805 107.842 12.9084 107.842 13.9168V18.8284H106.253Z" fill="black"/>
<path d="M95.5879 14.1632C95.5879 12.7016 96.0071 11.5289 96.8455 10.6452C97.684 9.75574 98.7603 9.31104 100.075 9.31104C101.015 9.31104 101.828 9.55463 102.513 10.0418C103.199 10.529 103.7 11.1748 104.018 11.9793C104.278 12.6364 104.408 13.3531 104.408 14.1292C104.408 14.3105 104.403 14.4917 104.391 14.673H97.3044C97.3044 15.5794 97.5707 16.3046 98.1032 16.8484C98.6414 17.3922 99.3042 17.6642 100.092 17.6642C100.783 17.6642 101.324 17.5339 101.715 17.2733C102.111 17.007 102.417 16.6218 102.632 16.1176H104.272C104.04 16.9787 103.567 17.684 102.853 18.2335C102.14 18.783 101.23 19.0578 100.126 19.0578C99.3948 19.0578 98.7377 18.9331 98.1542 18.6839C97.5763 18.4346 97.1005 18.089 96.7266 17.6472C96.3583 17.2053 96.0751 16.6898 95.8768 16.1006C95.6842 15.5058 95.5879 14.86 95.5879 14.1632ZM97.3214 13.3134H102.717C102.7 12.5939 102.457 11.9736 101.987 11.4524C101.516 10.9256 100.879 10.6622 100.075 10.6622C99.2645 10.6622 98.6102 10.8973 98.1117 11.3675C97.6188 11.832 97.3554 12.4806 97.3214 13.3134Z" fill="black"/>
<path d="M89.5459 10.7387V9.46411H91.0245V7.11877H92.605V9.46411H94.381V10.7387H92.605V16.2877C92.605 16.7975 92.6588 17.1289 92.7665 17.2819C92.8741 17.4292 93.146 17.5028 93.5823 17.5028H94.381V18.8285H93.2339C92.7637 18.8285 92.3926 18.8001 92.1207 18.7435C91.8544 18.6812 91.6335 18.5622 91.4579 18.3866C91.2879 18.2053 91.1718 17.9702 91.1095 17.6813C91.0528 17.3867 91.0245 16.9873 91.0245 16.4831V10.7387H89.5459Z" fill="black"/>
<path d="M80.6582 15.8032H82.3322C82.5928 17.0779 83.4114 17.7152 84.788 17.7152C85.4395 17.7152 85.9749 17.5905 86.3941 17.3413C86.819 17.0864 87.0314 16.7465 87.0314 16.3216C87.0314 15.8854 86.8558 15.5483 86.5045 15.3104C86.1533 15.0724 85.6718 14.894 85.06 14.775L83.6748 14.4946C83.2953 14.4153 82.9611 14.3218 82.6721 14.2142C82.3832 14.1009 82.0971 13.9479 81.8139 13.7553C81.5363 13.5627 81.321 13.3106 81.1681 12.999C81.0151 12.6818 80.9386 12.3164 80.9386 11.9028C80.9386 11.0984 81.2984 10.4639 82.0178 9.99937C82.7373 9.52917 83.6494 9.29407 84.754 9.29407C85.7907 9.29407 86.6377 9.55466 87.2948 10.0758C87.952 10.5914 88.357 11.2995 88.51 12.2002H86.8529C86.6207 11.1635 85.8616 10.6452 84.5756 10.6452C84.2244 10.6452 83.9015 10.6848 83.6069 10.7642C83.3123 10.8378 83.0602 10.9681 82.8506 11.155C82.6466 11.342 82.5447 11.5686 82.5447 11.8348C82.5447 12.1917 82.6636 12.4637 82.9016 12.6506C83.1452 12.8376 83.5247 12.9877 84.0402 13.101L85.3574 13.3644C85.8446 13.4607 86.2666 13.574 86.6235 13.7043C86.9861 13.8289 87.326 13.9961 87.6432 14.2057C87.9661 14.4153 88.2097 14.6844 88.374 15.0129C88.544 15.3359 88.6289 15.7154 88.6289 16.1516C88.6289 17.0524 88.2664 17.7633 87.5413 18.2845C86.8161 18.8 85.8871 19.0578 84.754 19.0578C84.1479 19.0578 83.5899 18.9672 83.08 18.7859C82.5702 18.5989 82.1481 18.3525 81.8139 18.0466C81.4853 17.735 81.2219 17.3894 81.0236 17.0099C80.8253 16.6247 80.7035 16.2224 80.6582 15.8032Z" fill="black"/>
<path d="M71.3955 15.4549V9.46411H72.9761V14.979C72.9761 15.302 72.9874 15.5824 73.01 15.8203C73.0384 16.0582 73.0922 16.3018 73.1715 16.5511C73.2565 16.7947 73.3669 16.9958 73.5029 17.1544C73.6445 17.3074 73.8371 17.4349 74.0807 17.5368C74.3243 17.6331 74.6133 17.6813 74.9475 17.6813C75.701 17.6813 76.2845 17.4179 76.698 16.891C77.1172 16.3642 77.3268 15.605 77.3268 14.6137V9.46411H78.9159V18.8285H77.3268V17.4858C76.6923 18.5339 75.7123 19.0579 74.3867 19.0579C72.3926 19.0579 71.3955 17.8569 71.3955 15.4549Z" fill="black"/>
<path d="M60.085 18.8284V6.20947H64.6312C65.1297 6.20947 65.5857 6.2378 65.9993 6.29445C66.4128 6.34543 66.8122 6.44457 67.1974 6.59186C67.5883 6.73349 67.9169 6.91761 68.1832 7.14421C68.4494 7.37081 68.6619 7.67106 68.8205 8.04495C68.9848 8.41318 69.0669 8.84089 69.0669 9.32809C69.0669 9.92859 68.9423 10.4809 68.693 10.9851C68.4438 11.4836 68.1039 11.8575 67.6733 12.1068C68.9479 12.6393 69.5853 13.6392 69.5853 15.1065C69.5853 15.7579 69.4691 16.3273 69.2369 16.8145C69.0046 17.3017 68.6789 17.6897 68.2596 17.9786C67.8461 18.2676 67.3731 18.4828 66.8405 18.6245C66.308 18.7604 65.716 18.8284 65.0645 18.8284H60.085ZM61.861 17.3328H65.0815C65.971 17.3328 66.6394 17.1459 67.087 16.772C67.5345 16.3924 67.7583 15.8429 67.7583 15.1234C67.7583 14.387 67.5317 13.8516 67.0785 13.5174C66.6309 13.1832 65.9313 13.016 64.9796 13.016H61.861V17.3328ZM61.861 11.6054H64.9031C66.4836 11.6054 67.2739 10.9256 67.2739 9.56602C67.2739 8.94286 67.0615 8.47833 66.6366 8.17242C66.2174 7.86084 65.6396 7.70505 64.9031 7.70505H61.861V11.6054Z" fill="black"/>
<path d="M48.9199 13.9932C48.9199 12.5316 49.2768 11.3873 49.9906 10.5602C50.7101 9.72742 51.6392 9.31104 52.7778 9.31104C54.1318 9.31104 55.126 9.85488 55.7605 10.9426V9.46399H57.341V17.5792C57.341 18.4743 57.2674 19.1626 57.1201 19.6441C56.9728 20.1313 56.7519 20.5392 56.4573 20.8678C56.1174 21.2586 55.667 21.5617 55.1062 21.777C54.5453 21.9923 53.9165 22.0999 53.2197 22.0999C52.1433 22.0999 51.2681 21.8535 50.5939 21.3606C49.9255 20.8734 49.5176 20.1625 49.3703 19.2277H51.0613C51.1803 19.6979 51.4012 20.0605 51.7241 20.3154C52.0527 20.576 52.5569 20.7063 53.2367 20.7063C54.0808 20.7063 54.7181 20.474 55.1487 20.0095C55.3526 19.7942 55.5056 19.5421 55.6075 19.2532C55.7095 18.9643 55.7605 18.5281 55.7605 17.9446V17.0523C55.1317 18.1344 54.1374 18.6754 52.7778 18.6754C51.6392 18.6754 50.7101 18.2618 49.9906 17.4347C49.2768 16.6076 48.9199 15.4605 48.9199 13.9932ZM50.6364 13.9932C50.6364 15.0752 50.8489 15.9023 51.2738 16.4745C51.7043 17.0467 52.3388 17.3328 53.1772 17.3328C53.5398 17.3328 53.8768 17.2704 54.1884 17.1458C54.5 17.0155 54.7804 16.8229 55.0297 16.568C55.279 16.3074 55.4744 15.959 55.616 15.5228C55.7576 15.0809 55.8285 14.571 55.8285 13.9932C55.8285 12.8772 55.5764 12.0444 55.0722 11.4949C54.5737 10.9397 53.942 10.6622 53.1772 10.6622C52.3388 10.6622 51.7043 10.9482 51.2738 11.5204C50.8489 12.0926 50.6364 12.9168 50.6364 13.9932Z" fill="black"/>
<path d="M39.5127 15.4549V9.46411H41.0932V14.979C41.0932 15.302 41.1046 15.5824 41.1272 15.8203C41.1556 16.0582 41.2094 16.3018 41.2887 16.5511C41.3737 16.7947 41.4841 16.9958 41.6201 17.1544C41.7617 17.3074 41.9543 17.4349 42.1979 17.5368C42.4415 17.6331 42.7304 17.6813 43.0647 17.6813C43.8181 17.6813 44.4016 17.4179 44.8152 16.891C45.2344 16.3642 45.444 15.605 45.444 14.6137V9.46411H47.0331V18.8285H45.444V17.4858C44.8095 18.5339 43.8295 19.0579 42.5038 19.0579C40.5097 19.0579 39.5127 17.8569 39.5127 15.4549Z" fill="black"/>
<path d="M28.2021 18.8284V6.20947H32.7484C33.2469 6.20947 33.7029 6.2378 34.1165 6.29445C34.53 6.34543 34.9294 6.44457 35.3146 6.59186C35.7055 6.73349 36.0341 6.91761 36.3004 7.14421C36.5666 7.37081 36.779 7.67106 36.9377 8.04495C37.102 8.41318 37.1841 8.84089 37.1841 9.32809C37.1841 9.92859 37.0595 10.4809 36.8102 10.9851C36.5609 11.4836 36.221 11.8575 35.7905 12.1068C37.0651 12.6393 37.7025 13.6392 37.7025 15.1065C37.7025 15.7579 37.5863 16.3273 37.3541 16.8145C37.1218 17.3017 36.796 17.6897 36.3768 17.9786C35.9633 18.2676 35.4902 18.4828 34.9577 18.6245C34.4252 18.7604 33.8332 18.8284 33.1817 18.8284H28.2021ZM29.9781 17.3328H33.1987C34.0881 17.3328 34.7566 17.1459 35.2042 16.772C35.6517 16.3924 35.8755 15.8429 35.8755 15.1234C35.8755 14.387 35.6489 13.8516 35.1957 13.5174C34.7481 13.1832 34.0485 13.016 33.0968 13.016H29.9781V17.3328ZM29.9781 11.6054H33.0203C34.6008 11.6054 35.3911 10.9256 35.3911 9.56602C35.3911 8.94286 35.1787 8.47833 34.7538 8.17242C34.3346 7.86084 33.7567 7.70505 33.0203 7.70505H29.9781V11.6054Z" fill="black"/>
</g>
<defs>
<clipPath id="clip0_1417_4988">
<rect width="110.834" height="24" fill="white" transform="translate(0.0830078 0.5)"/>
</clipPath>
</defs>
</svg>
