<svg xmlns="http://www.w3.org/2000/svg" width="147" height="31" fill="none" viewBox="0 0 147 31"><path fill="url(#b)" fill-rule="evenodd" d="m2.495 27.137 10.116-3.464 10.116 3.464-.395-.398a2920.488 2920.488 0 0 0-9.72-9.723l-2.3 2.293a2933.362 2933.362 0 0 0-7.817 7.828Zm8.141-12.09a2939.314 2939.314 0 0 0-9.724 9.726l-.253.255 3.393-9.913L.614 5.072c3.021 3.004 6.567 6.532 10.022 9.975Zm3.95 0c.778.776 1.545 1.54 2.293 2.288 2.892 2.886 5.51 5.506 7.431 7.438l.254.255-3.394-9.913 3.438-10.043c-3.021 3.004-6.567 6.532-10.022 9.975ZM22.6 3.137c-3.014 2.997-6.546 6.511-9.988 9.941-3.442-3.43-6.973-6.944-9.988-9.941l9.988 3.419 9.988-3.42Z" clip-rule="evenodd"/><path fill="#000" fill-opacity=".88" d="M136.353 20.422h2.745v-6.736h-2.745V11.52h5.491v3.024h.172c.1-.386.236-.758.407-1.115a3.68 3.68 0 0 1 .687-.966 3.241 3.241 0 0 1 1.03-.686c.4-.172.879-.257 1.437-.257h1.201v2.574h-2.274c-.829 0-1.48.243-1.952.73-.472.485-.708 1.107-.708 1.865v3.733h3.84v2.167h-9.331v-2.167Zm-7.564 2.425c-.886 0-1.673-.136-2.359-.408a4.753 4.753 0 0 1-1.738-1.158 5.112 5.112 0 0 1-1.051-1.802c-.243-.715-.365-1.516-.365-2.403 0-.9.122-1.709.365-2.424a5.353 5.353 0 0 1 1.072-1.823 4.678 4.678 0 0 1 1.652-1.159c.658-.271 1.395-.407 2.21-.407.801 0 1.523.136 2.166.407a4.38 4.38 0 0 1 1.631 1.116 4.938 4.938 0 0 1 1.051 1.759c.243.686.365 1.444.365 2.274v.9h-7.766V18c0 .8.25 1.451.751 1.952.5.486 1.201.73 2.102.73.687 0 1.273-.137 1.759-.408a3.882 3.882 0 0 0 1.244-1.116l1.566 1.566c-.4.586-.986 1.087-1.759 1.502-.758.415-1.723.622-2.896.622Zm-.193-9.568c-.772 0-1.394.243-1.866.73-.472.486-.708 1.13-.708 1.93v.15h5.02v-.193c0-.8-.222-1.437-.665-1.909-.429-.472-1.023-.708-1.781-.708Zm-11.104 9.31c-1.058 0-1.838-.28-2.338-.837-.501-.558-.751-1.28-.751-2.166v-5.9h-3.218V11.52h2.188c.444 0 .758-.086.944-.258.186-.186.279-.508.279-.965V7.615h2.553v3.905h4.505v2.166h-4.505v6.736h4.505v2.167h-4.162Zm-13.013.258c-1.216 0-2.267-.186-3.154-.558-.886-.386-1.58-.9-2.08-1.545l1.608-1.458c.458.5.98.886 1.566 1.158.601.272 1.295.408 2.081.408.687 0 1.237-.115 1.652-.343.415-.23.622-.58.622-1.052 0-.4-.143-.672-.429-.815-.272-.143-.636-.25-1.094-.322l-1.781-.278a10.856 10.856 0 0 1-1.351-.3 4.385 4.385 0 0 1-1.158-.58 2.75 2.75 0 0 1-.794-.922c-.2-.387-.3-.851-.3-1.395 0-1.158.429-2.045 1.287-2.66.872-.615 2.066-.922 3.582-.922 1.073 0 1.981.15 2.725.45.758.3 1.38.722 1.866 1.266l-1.437 1.587c-.315-.343-.737-.643-1.266-.9-.515-.272-1.173-.408-1.974-.408-1.401 0-2.102.436-2.102 1.308 0 .4.143.68.429.837.286.143.658.25 1.116.322l1.759.279c.472.071.922.178 1.351.321.443.13.83.315 1.159.558.343.243.614.55.815.923.2.371.3.83.3 1.372 0 1.145-.443 2.046-1.33 2.703-.872.644-2.095.966-3.668.966Zm-10.097-2.21h-.107a4.056 4.056 0 0 1-1.137 1.566c-.5.429-1.201.643-2.102.643-1.087 0-1.974-.357-2.66-1.072-.672-.73-1.008-1.767-1.008-3.11v-7.145h2.746v6.758c0 1.602.693 2.403 2.08 2.403.272 0 .537-.036.794-.108a2.11 2.11 0 0 0 .708-.322c.215-.157.379-.343.493-.557.13-.215.194-.472.194-.773v-7.4h2.745v11.069h-2.746v-1.952ZM74.934 7.615h5.213c1.415 0 2.502.358 3.26 1.073.773.7 1.159 1.659 1.159 2.874 0 .859-.215 1.545-.644 2.06-.415.515-1.008.886-1.78 1.115v.108c.9.214 1.609.607 2.124 1.18.529.557.793 1.351.793 2.38 0 .63-.107 1.202-.322 1.717-.2.5-.493.937-.88 1.308-.37.372-.829.658-1.372.858-.53.2-1.13.3-1.802.3h-5.75V7.616Zm4.89 12.936c.788 0 1.374-.143 1.76-.43.4-.3.6-.807.6-1.522v-.708c0-.701-.2-1.194-.6-1.48-.386-.3-.972-.45-1.76-.45H77.68v4.59h2.145Zm-.364-6.543c.758 0 1.316-.136 1.674-.408.371-.271.557-.743.557-1.415v-.708c0-.672-.186-1.145-.558-1.416-.357-.272-.915-.408-1.673-.408h-1.78v4.355h1.78Zm-7.33 9.738c0 1.159-.486 2.01-1.459 2.553-.958.558-2.46.837-4.505.837-1 0-1.838-.065-2.51-.193-.672-.115-1.215-.286-1.63-.515-.4-.229-.687-.508-.858-.837a2.204 2.204 0 0 1-.258-1.072c0-.615.18-1.087.537-1.416.357-.33.858-.572 1.501-.73v-.171c-.429-.143-.772-.344-1.03-.6-.242-.258-.364-.616-.364-1.073 0-.544.179-.952.536-1.223.372-.272.858-.48 1.459-.622v-.108a3.697 3.697 0 0 1-1.544-1.33c-.372-.572-.558-1.265-.558-2.08 0-.616.107-1.159.322-1.63a3.47 3.47 0 0 1 .943-1.224c.415-.343.908-.6 1.48-.772a6.155 6.155 0 0 1 1.91-.279c.743 0 1.416.1 2.016.3v-.472c0-.428.136-.786.408-1.072.286-.286.68-.43 1.18-.43H71.7v2.06h-2.617v.365c.543.329.958.758 1.244 1.287.3.515.45 1.137.45 1.866 0 .615-.114 1.166-.343 1.652a3.167 3.167 0 0 1-.944 1.223c-.4.329-.894.586-1.48.772a6.631 6.631 0 0 1-1.91.258c-.285 0-.564-.007-.836-.022a4.363 4.363 0 0 1-.75-.15c-.2.072-.394.186-.58.343a.775.775 0 0 0-.279.622c0 .344.165.558.494.644.329.071.722.107 1.18.107h2.51c.772 0 1.43.079 1.973.236.543.143.987.358 1.33.644.343.272.594.6.75.987.158.386.237.808.237 1.265Zm-2.574.193a.94.94 0 0 0-.408-.793c-.257-.186-.744-.28-1.459-.28h-3.818c-.43.244-.644.601-.644 1.073 0 .387.158.708.472.966.33.257.88.386 1.652.386h1.78c1.617 0 2.425-.45 2.425-1.352Zm-3.454-6.671c.7 0 1.215-.165 1.544-.494.33-.343.494-.786.494-1.33v-.557c0-.544-.165-.98-.494-1.309-.329-.343-.843-.515-1.544-.515-.687 0-1.194.172-1.523.515-.33.329-.494.765-.494 1.309v.557c0 .544.165.987.494 1.33.329.33.836.494 1.523.494Zm-10.676 3.369h-.107a4.056 4.056 0 0 1-1.137 1.566c-.5.429-1.202.643-2.103.643-1.087 0-1.973-.357-2.66-1.072-.672-.73-1.008-1.767-1.008-3.11v-7.145h2.746v6.758c0 1.602.694 2.403 2.08 2.403.273 0 .537-.036.795-.108.271-.071.507-.178.708-.322.214-.157.378-.343.493-.557.129-.215.193-.472.193-.773v-7.4h2.746v11.069h-2.746v-1.952ZM35.763 7.615h5.213c1.416 0 2.502.358 3.26 1.073.773.7 1.159 1.659 1.159 2.874 0 .859-.215 1.545-.644 2.06-.414.515-1.008.886-1.78 1.115v.108c.9.214 1.609.607 2.123 1.18.53.557.794 1.351.794 2.38a4.42 4.42 0 0 1-.322 1.717c-.2.5-.493.937-.88 1.308-.37.372-.829.658-1.372.858-.53.2-1.13.3-1.802.3h-5.75V7.616Zm4.89 12.936c.788 0 1.374-.143 1.76-.43.4-.3.6-.807.6-1.522v-.708c0-.701-.2-1.194-.6-1.48-.386-.3-.972-.45-1.76-.45H38.51v4.59h2.145Zm-.364-6.543c.758 0 1.316-.136 1.673-.408.372-.271.558-.743.558-1.415v-.708c0-.672-.186-1.145-.558-1.416-.357-.272-.915-.408-1.673-.408h-1.78v4.355h1.78Z"/><defs><linearGradient id="b" x1="22.77" x2="-2.789" y1="5.614" y2="25.243" gradientUnits="userSpaceOnUse"><stop stop-color="#B490FF"/><stop offset="1" stop-color="#5503FF"/></linearGradient></defs></svg>