<svg width="148" height="30" viewBox="0 0 148 30" fill="none" xmlns="http://www.w3.org/2000/svg">
<g clip-path="url(#clip0_2842_23012)">
<path fill-rule="evenodd" clip-rule="evenodd" d="M2.79864 26.9999L12.9148 23.5367L23.031 26.9999L22.6361 26.6025C20.7196 24.6746 18.1037 22.0576 15.213 19.1722C14.4629 18.4234 13.6944 17.6566 12.9148 16.8792C12.1353 17.6566 11.3667 18.4234 10.6166 19.1722C7.72595 22.0576 5.11007 24.6746 3.19353 26.6025C3.05834 26.7385 2.92666 26.871 2.79864 26.9999ZM10.9399 14.9103C10.162 15.6861 9.39506 16.4512 8.64647 17.1985C5.75513 20.0846 3.13622 22.7046 1.2158 24.6364C1.1299 24.7228 1.04538 24.8079 0.962274 24.8915L4.35611 14.978L0.917969 4.93506C3.93919 7.9388 7.48492 11.4671 10.9399 14.9103ZM14.8898 14.9103C15.6677 15.6861 16.4346 16.4512 17.1832 17.1985C20.0745 20.0846 22.6934 22.7046 24.6138 24.6364L24.8674 24.8915L21.4735 14.978L24.9117 4.93506C21.8905 7.9388 18.3447 11.4671 14.8898 14.9103ZM22.9027 3C19.8883 5.99693 16.3565 9.51147 12.9148 12.9414C9.47319 9.51147 5.94131 5.99693 2.92697 3L12.9148 6.41928L22.9027 3Z" fill="url(#paint0_linear_2842_23012)"/>
<path d="M136.656 20.2854H139.402V13.5495H136.656V11.3828H142.148V14.4076H142.319C142.419 14.0214 142.555 13.6496 142.727 13.2921C142.913 12.9202 143.142 12.5984 143.413 12.3267C143.699 12.0407 144.043 11.8119 144.443 11.6402C144.844 11.4686 145.323 11.3828 145.88 11.3828H147.082V13.9571H144.808C143.978 13.9571 143.328 14.2002 142.856 14.6864C142.384 15.1727 142.148 15.7948 142.148 16.5528V20.2854H145.988V22.4521H136.656V20.2854Z" fill="white"/>
<path d="M129.093 22.7101C128.206 22.7101 127.42 22.5743 126.733 22.3025C126.047 22.0308 125.467 21.6447 124.995 21.1441C124.538 20.6436 124.187 20.0429 123.944 19.3421C123.701 18.6271 123.58 17.8262 123.58 16.9395C123.58 16.0385 123.701 15.2305 123.944 14.5154C124.202 13.8003 124.559 13.1925 125.017 12.692C125.475 12.1914 126.025 11.8053 126.669 11.5336C127.327 11.2618 128.063 11.126 128.878 11.126C129.679 11.126 130.401 11.2618 131.045 11.5336C131.688 11.791 132.232 12.1628 132.675 12.6491C133.133 13.1353 133.483 13.7217 133.726 14.4082C133.97 15.0946 134.091 15.8526 134.091 16.6821V17.5831H126.325V17.8619C126.325 18.6628 126.576 19.3135 127.076 19.8141C127.577 20.3003 128.278 20.5435 129.179 20.5435C129.865 20.5435 130.451 20.4076 130.938 20.1359C131.438 19.8498 131.853 19.478 132.182 19.0204L133.748 20.5864C133.347 21.1727 132.761 21.6733 131.989 22.088C131.231 22.5028 130.266 22.7101 129.093 22.7101ZM128.9 13.1425C128.127 13.1425 127.505 13.3856 127.033 13.8718C126.561 14.3581 126.325 15.0017 126.325 15.8025V15.9527H131.345V15.7596C131.345 14.9588 131.124 14.3223 130.68 13.8504C130.251 13.3784 129.658 13.1425 128.9 13.1425Z" fill="white"/>
<path d="M117.796 22.4521C116.737 22.4521 115.958 22.1732 115.457 21.6155C114.957 21.0577 114.707 20.3355 114.707 19.4488V13.5495H111.489V11.3828H113.677C114.12 11.3828 114.435 11.297 114.621 11.1254C114.807 10.9395 114.9 10.6177 114.9 10.16V7.47852H117.452V11.3828H121.957V13.5495H117.452V20.2854H121.957V22.4521H117.796Z" fill="white"/>
<path d="M104.782 22.7101C103.567 22.7101 102.515 22.5242 101.629 22.1524C100.742 21.7662 100.048 21.2514 99.5479 20.6078L101.157 19.1491C101.614 19.6496 102.136 20.0358 102.723 20.3075C103.323 20.5792 104.017 20.7151 104.804 20.7151C105.49 20.7151 106.041 20.6007 106.455 20.3718C106.87 20.143 107.078 19.7926 107.078 19.3207C107.078 18.9202 106.935 18.6485 106.649 18.5055C106.377 18.3625 106.012 18.2552 105.554 18.1837L103.774 17.9048C103.316 17.8333 102.866 17.7332 102.422 17.6045C101.993 17.4615 101.607 17.2684 101.264 17.0253C100.935 16.7822 100.671 16.4747 100.47 16.1029C100.27 15.7167 100.17 15.2519 100.17 14.7085C100.17 13.5501 100.599 12.6634 101.457 12.0484C102.329 11.4335 103.524 11.126 105.04 11.126C106.112 11.126 107.02 11.2761 107.764 11.5765C108.522 11.8768 109.144 12.2987 109.63 12.8421L108.193 14.4296C107.878 14.0864 107.457 13.786 106.927 13.5286C106.413 13.2569 105.755 13.121 104.954 13.121C103.552 13.121 102.851 13.5572 102.851 14.4296C102.851 14.83 102.994 15.1089 103.281 15.2662C103.567 15.4093 103.938 15.5165 104.396 15.588L106.155 15.8669C106.627 15.9384 107.078 16.0457 107.507 16.1887C107.95 16.3174 108.336 16.5033 108.665 16.7464C109.008 16.9896 109.28 17.297 109.48 17.6689C109.68 18.0407 109.781 18.4984 109.781 19.0418C109.781 20.1859 109.337 21.0869 108.45 21.7448C107.578 22.3883 106.355 22.7101 104.782 22.7101Z" fill="white"/>
<path d="M94.686 20.5H94.5787C94.3356 21.1006 93.9566 21.6226 93.4418 22.066C92.9412 22.495 92.2404 22.7095 91.3395 22.7095C90.2526 22.7095 89.3659 22.352 88.6794 21.6369C88.0072 20.9076 87.6711 19.8707 87.6711 18.5264V11.3828H90.417V18.1402C90.417 19.742 91.1106 20.5429 92.4979 20.5429C92.7696 20.5429 93.0342 20.5071 93.2916 20.4356C93.5633 20.3641 93.7993 20.2568 93.9995 20.1138C94.214 19.9565 94.3785 19.7706 94.4929 19.5561C94.6216 19.3416 94.686 19.0841 94.686 18.7838V11.3828H97.4319V22.4521H94.686V20.5Z" fill="white"/>
<path d="M75.2373 7.47852H80.4502C81.866 7.47852 82.9529 7.83605 83.7109 8.55112C84.4832 9.25189 84.8693 10.2101 84.8693 11.4257C84.8693 12.2838 84.6548 12.9703 84.2257 13.4851C83.811 14 83.2175 14.3718 82.4452 14.6006V14.7079C83.3462 14.9224 84.0541 15.3157 84.569 15.8877C85.0981 16.4455 85.3627 17.2392 85.3627 18.2689C85.3627 18.8982 85.2554 19.4703 85.0409 19.9851C84.8407 20.4857 84.5475 20.9218 84.1614 21.2937C83.7896 21.6655 83.3319 21.9516 82.7885 22.1518C82.2593 22.352 81.6586 22.4521 80.9865 22.4521H75.2373V7.47852ZM80.1284 20.4141C80.915 20.4141 81.5013 20.2711 81.8875 19.9851C82.2879 19.6848 82.4881 19.1771 82.4881 18.462V17.7541C82.4881 17.0533 82.2879 16.5599 81.8875 16.2739C81.5013 15.9736 80.915 15.8234 80.1284 15.8234H77.9832V20.4141H80.1284ZM79.7637 13.8713C80.5217 13.8713 81.0794 13.7354 81.437 13.4637C81.8088 13.1919 81.9947 12.72 81.9947 12.0478V11.3399C81.9947 10.6677 81.8088 10.1958 81.437 9.92406C81.0794 9.65233 80.5217 9.51647 79.7637 9.51647H77.9832V13.8713H79.7637Z" fill="white"/>
<path d="M72.4333 23.6096C72.4333 24.768 71.9471 25.6189 70.9746 26.1624C70.0164 26.7201 68.5147 26.999 66.4696 26.999C65.4685 26.999 64.6319 26.9347 63.9597 26.8059C63.2876 26.6915 62.7441 26.5199 62.3294 26.2911C61.9289 26.0623 61.6429 25.7834 61.4713 25.4545C61.2997 25.1398 61.2139 24.7823 61.2139 24.3819C61.2139 23.7669 61.3926 23.2949 61.7502 22.966C62.1077 22.6371 62.6083 22.394 63.2518 22.2366V22.065C62.8228 21.922 62.4795 21.7218 62.2221 21.4644C61.979 21.2069 61.8574 20.8494 61.8574 20.3918C61.8574 19.8483 62.0362 19.4407 62.3937 19.169C62.7656 18.8973 63.2518 18.6899 63.8525 18.5469V18.4396C63.1946 18.125 62.6798 17.6816 62.3079 17.1096C61.9361 16.5375 61.7502 15.8439 61.7502 15.0287C61.7502 14.4138 61.8574 13.8703 62.072 13.3984C62.3008 12.9121 62.6154 12.5045 63.0158 12.1756C63.4306 11.8324 63.924 11.5749 64.496 11.4033C65.0681 11.2174 65.7045 11.1244 66.4053 11.1244C67.149 11.1244 67.8211 11.2245 68.4218 11.4248V10.9528C68.4218 10.5238 68.5576 10.1662 68.8294 9.88021C69.1154 9.59419 69.5087 9.45117 70.0092 9.45117H72.0043V11.5106H69.3871V11.8753C69.9306 12.2042 70.3453 12.6332 70.6314 13.1624C70.9317 13.6772 71.0818 14.2994 71.0818 15.0287C71.0818 15.6437 70.9674 16.1943 70.7386 16.6805C70.5241 17.1668 70.2095 17.5744 69.7947 17.9033C69.3943 18.2322 68.9009 18.4897 68.3145 18.6756C67.7425 18.8472 67.1061 18.933 66.4053 18.933C66.1193 18.933 65.8404 18.9259 65.5687 18.9116C65.3112 18.883 65.0609 18.8329 64.8178 18.7614C64.6176 18.8329 64.4245 18.9473 64.2386 19.1046C64.0527 19.2619 63.9597 19.4693 63.9597 19.7267C63.9597 20.07 64.1242 20.2845 64.4531 20.3703C64.7821 20.4418 65.1754 20.4776 65.633 20.4776H68.1429C68.9152 20.4776 69.573 20.5562 70.1165 20.7135C70.66 20.8566 71.1033 21.0711 71.4465 21.3571C71.7898 21.6288 72.04 21.9578 72.1974 22.3439C72.3547 22.73 72.4333 23.1519 72.4333 23.6096ZM69.8591 23.8026C69.8591 23.4737 69.7232 23.2091 69.4515 23.0089C69.1941 22.823 68.7078 22.73 67.9927 22.73H64.1743C63.7452 22.9732 63.5307 23.3307 63.5307 23.8026C63.5307 24.1888 63.688 24.5106 64.0026 24.768C64.3316 25.0254 64.8822 25.1541 65.6545 25.1541H67.435C69.051 25.1541 69.8591 24.7036 69.8591 23.8026ZM66.4053 17.131C67.1061 17.131 67.6209 16.9666 67.9498 16.6376C68.2788 16.2944 68.4432 15.8511 68.4432 15.3076V14.7498C68.4432 14.2064 68.2788 13.7702 67.9498 13.4413C67.6209 13.098 67.1061 12.9264 66.4053 12.9264C65.7188 12.9264 65.2111 13.098 64.8822 13.4413C64.5532 13.7702 64.3888 14.2064 64.3888 14.7498V15.3076C64.3888 15.8511 64.5532 16.2944 64.8822 16.6376C65.2111 16.9666 65.7188 17.131 66.4053 17.131Z" fill="white"/>
<path d="M55.7294 20.5H55.6222C55.3791 21.1006 55.0001 21.6226 54.4852 22.066C53.9847 22.495 53.2839 22.7095 52.3829 22.7095C51.296 22.7095 50.4093 22.352 49.7229 21.6369C49.0507 20.9076 48.7146 19.8707 48.7146 18.5264V11.3828H51.4605V18.1402C51.4605 19.742 52.1541 20.5429 53.5413 20.5429C53.8131 20.5429 54.0776 20.5071 54.3351 20.4356C54.6068 20.3641 54.8428 20.2568 55.043 20.1138C55.2575 19.9565 55.422 19.7706 55.5364 19.5561C55.6651 19.3416 55.7294 19.0841 55.7294 18.7838V11.3828H58.4753V22.4521H55.7294V20.5Z" fill="white"/>
<path d="M36.0664 7.47852H41.2793C42.6951 7.47852 43.782 7.83605 44.54 8.55112C45.3123 9.25189 45.6984 10.2101 45.6984 11.4257C45.6984 12.2838 45.4839 12.9703 45.0548 13.4851C44.6401 14 44.0466 14.3718 43.2743 14.6006V14.7079C44.1753 14.9224 44.8832 15.3157 45.3981 15.8877C45.9272 16.4455 46.1918 17.2392 46.1918 18.2689C46.1918 18.8982 46.0846 19.4703 45.87 19.9851C45.6698 20.4857 45.3766 20.9218 44.9905 21.2937C44.6187 21.6655 44.161 21.9516 43.6176 22.1518C43.0884 22.352 42.4877 22.4521 41.8156 22.4521H36.0664V7.47852ZM40.9575 20.4141C41.7441 20.4141 42.3304 20.2711 42.7166 19.9851C43.117 19.6848 43.3172 19.1771 43.3172 18.462V17.7541C43.3172 17.0533 43.117 16.5599 42.7166 16.2739C42.3304 15.9736 41.7441 15.8234 40.9575 15.8234H38.8123V20.4141H40.9575ZM40.5928 13.8713C41.3508 13.8713 41.9085 13.7354 42.2661 13.4637C42.6379 13.1919 42.8238 12.72 42.8238 12.0478V11.3399C42.8238 10.6677 42.6379 10.1958 42.2661 9.92406C41.9085 9.65233 41.3508 9.51647 40.5928 9.51647H38.8123V13.8713H40.5928Z" fill="white"/>
</g>
<defs>
<linearGradient id="paint0_linear_2842_23012" x1="23.0735" y1="5.4776" x2="-2.48524" y2="25.106" gradientUnits="userSpaceOnUse">
<stop stop-color="#B490FF"/>
<stop offset="1" stop-color="#5503FF"/>
</linearGradient>
<clipPath id="clip0_2842_23012">
<rect width="146.164" height="30" fill="white" transform="translate(0.917969)"/>
</clipPath>
</defs>
</svg>
