<svg width="147" height="25" viewBox="0 0 147 25" fill="none" xmlns="http://www.w3.org/2000/svg">
<path d="M14.7959 16.6738C17.6863 19.559 20.3024 22.1767 22.2188 24.1045C22.3529 24.2394 22.4823 24.3721 22.6094 24.5L12.4971 21.0381L2.38379 24.499C2.51083 24.3711 2.64128 24.2394 2.77539 24.1045C4.69184 22.1767 7.30775 19.5591 10.1982 16.6738C10.9482 15.9252 11.7176 15.1591 12.4971 14.3818C13.2764 15.159 14.046 15.9253 14.7959 16.6738ZM0.5 2.4375C3.52141 5.44138 7.06643 8.97076 10.5215 12.4141C9.74409 13.1893 8.97664 13.9534 8.22852 14.7002C5.33736 17.5861 2.71819 20.206 0.797852 22.1377C0.711421 22.2246 0.626565 22.3104 0.542969 22.3945L3.93848 12.4795L0.5 2.4375ZM21.0557 12.4795L24.4492 22.3936C24.3661 22.3099 24.2822 22.2241 24.1963 22.1377C22.276 20.206 19.6567 17.586 16.7656 14.7002C16.0174 13.9533 15.2492 13.1894 14.4717 12.4141C17.9263 8.97115 21.471 5.44216 24.4922 2.43848L21.0557 12.4795ZM22.4883 0.5C19.473 3.49779 15.94 7.01408 12.4971 10.4453C9.05415 7.0141 5.52112 3.4978 2.50586 0.5L12.4971 3.9209L22.4883 0.5Z" fill="url(#paint0_linear_1972_27525)"/>
<path d="M136.237 17.7864H138.982V11.0505H136.237V8.88379H141.728V11.9085H141.9C142 11.5224 142.136 11.1506 142.308 10.793C142.493 10.4212 142.722 10.0994 142.994 9.82768C143.28 9.54165 143.623 9.31283 144.024 9.14122C144.424 8.9696 144.903 8.88379 145.461 8.88379H146.662V11.458H144.388C143.559 11.458 142.908 11.7012 142.436 12.1874C141.964 12.6737 141.728 13.2958 141.728 14.0538V17.7864H145.568V19.9531H136.237V17.7864Z" fill="black" fill-opacity="0.88"/>
<path d="M128.673 20.2111C127.787 20.2111 127 20.0752 126.314 19.8035C125.627 19.5318 125.048 19.1456 124.576 18.6451C124.118 18.1445 123.768 17.5439 123.525 16.8431C123.282 16.128 123.16 15.3272 123.16 14.4405C123.16 13.5395 123.282 12.7315 123.525 12.0164C123.782 11.3013 124.14 10.6935 124.597 10.193C125.055 9.69241 125.606 9.30627 126.249 9.03454C126.907 8.76282 127.644 8.62695 128.459 8.62695C129.26 8.62695 129.982 8.76282 130.625 9.03454C131.269 9.29197 131.813 9.66381 132.256 10.1501C132.714 10.6363 133.064 11.2227 133.307 11.9091C133.55 12.5956 133.672 13.3536 133.672 14.1831V15.084H125.906V15.3629C125.906 16.1638 126.156 16.8145 126.657 17.3151C127.157 17.8013 127.858 18.0444 128.759 18.0444C129.446 18.0444 130.032 17.9086 130.518 17.6368C131.019 17.3508 131.434 16.979 131.762 16.5213L133.328 18.0873C132.928 18.6737 132.342 19.1743 131.569 19.589C130.811 20.0037 129.846 20.2111 128.673 20.2111ZM128.48 10.6435C127.708 10.6435 127.086 10.8866 126.614 11.3728C126.142 11.8591 125.906 12.5026 125.906 13.3035V13.4537H130.926V13.2606C130.926 12.4597 130.704 11.8233 130.261 11.3514C129.832 10.8794 129.238 10.6435 128.48 10.6435Z" fill="black" fill-opacity="0.88"/>
<path d="M117.376 19.9531C116.318 19.9531 115.539 19.6742 115.038 19.1164C114.537 18.5587 114.287 17.8365 114.287 16.9498V11.0504H111.069V8.88378H113.257C113.701 8.88378 114.015 8.79797 114.201 8.62635C114.387 8.44044 114.48 8.11865 114.48 7.66101V4.97949H117.033V8.88378H121.538V11.0504H117.033V17.7864H121.538V19.9531H117.376Z" fill="black" fill-opacity="0.88"/>
<path d="M104.363 20.2111C103.147 20.2111 102.096 20.0252 101.209 19.6533C100.323 19.2672 99.629 18.7524 99.1284 18.1088L100.737 16.65C101.195 17.1506 101.717 17.5367 102.303 17.8085C102.904 18.0802 103.598 18.2161 104.384 18.2161C105.071 18.2161 105.621 18.1016 106.036 17.8728C106.451 17.644 106.658 17.2936 106.658 16.8217C106.658 16.4212 106.515 16.1495 106.229 16.0065C105.957 15.8635 105.593 15.7562 105.135 15.6847L103.354 15.4058C102.897 15.3343 102.446 15.2342 102.003 15.1055C101.574 14.9625 101.188 14.7694 100.845 14.5263C100.516 14.2832 100.251 13.9757 100.051 13.6038C99.8506 13.2177 99.7505 12.7529 99.7505 12.2095C99.7505 11.051 100.18 10.1644 101.038 9.54939C101.91 8.93443 103.104 8.62695 104.62 8.62695C105.693 8.62695 106.601 8.77712 107.345 9.07745C108.103 9.37778 108.725 9.79967 109.211 10.3431L107.774 11.9306C107.459 11.5873 107.037 11.287 106.508 11.0296C105.993 10.7579 105.335 10.622 104.534 10.622C103.133 10.622 102.432 11.0582 102.432 11.9306C102.432 12.331 102.575 12.6099 102.861 12.7672C103.147 12.9102 103.519 13.0175 103.977 13.089L105.736 13.3679C106.208 13.4394 106.658 13.5466 107.087 13.6897C107.53 13.8184 107.917 14.0043 108.246 14.2474C108.589 14.4905 108.861 14.798 109.061 15.1699C109.261 15.5417 109.361 15.9993 109.361 16.5428C109.361 17.6869 108.918 18.5879 108.031 19.2458C107.159 19.8893 105.936 20.2111 104.363 20.2111Z" fill="black" fill-opacity="0.88"/>
<path d="M94.2666 18.0009H94.1593C93.9162 18.6016 93.5372 19.1236 93.0223 19.5669C92.5218 19.996 91.821 20.2105 90.92 20.2105C89.8331 20.2105 88.9464 19.853 88.26 19.1379C87.5878 18.4085 87.2517 17.3717 87.2517 16.0273V8.88379H89.9976V15.6412C89.9976 17.243 90.6912 18.0438 92.0784 18.0438C92.3502 18.0438 92.6147 18.0081 92.8722 17.9366C93.1439 17.8651 93.3799 17.7578 93.5801 17.6148C93.7946 17.4575 93.9591 17.2716 94.0735 17.0571C94.2022 16.8425 94.2666 16.5851 94.2666 16.2848V8.88379H97.0124V19.9531H94.2666V18.0009Z" fill="black" fill-opacity="0.88"/>
<path d="M74.8179 4.97949H80.0307C81.4466 4.97949 82.5335 5.33703 83.2915 6.0521C84.0637 6.75287 84.4499 7.71106 84.4499 8.92668C84.4499 9.78477 84.2354 10.4712 83.8063 10.9861C83.3916 11.5009 82.7981 11.8728 82.0258 12.1016V12.2089C82.9268 12.4234 83.6347 12.8167 84.1495 13.3887C84.6787 13.9465 84.9433 14.7402 84.9433 15.7699C84.9433 16.3992 84.836 16.9712 84.6215 17.4861C84.4213 17.9866 84.1281 18.4228 83.742 18.7947C83.3701 19.1665 82.9125 19.4525 82.369 19.6527C81.8399 19.853 81.2392 19.9531 80.567 19.9531H74.8179V4.97949ZM79.709 17.9151C80.4955 17.9151 81.0819 17.7721 81.468 17.4861C81.8685 17.1858 82.0687 16.6781 82.0687 15.963V15.2551C82.0687 14.5543 81.8685 14.0609 81.468 13.7749C81.0819 13.4745 80.4955 13.3244 79.709 13.3244H77.5637V17.9151H79.709ZM79.3443 11.3722C80.1022 11.3722 80.66 11.2364 81.0175 10.9646C81.3894 10.6929 81.5753 10.221 81.5753 9.5488V8.84088C81.5753 8.16871 81.3894 7.69676 81.0175 7.42503C80.66 7.15331 80.1022 7.01744 79.3443 7.01744H77.5637V11.3722H79.3443Z" fill="black" fill-opacity="0.88"/>
<path d="M72.0139 21.1106C72.0139 22.269 71.5276 23.1199 70.5552 23.6634C69.597 24.2211 68.0953 24.5 66.0502 24.5C65.0491 24.5 64.2125 24.4356 63.5403 24.3069C62.8681 24.1925 62.3247 24.0209 61.9099 23.7921C61.5095 23.5632 61.2235 23.2844 61.0519 22.9554C60.8802 22.6408 60.7944 22.2833 60.7944 21.8828C60.7944 21.2679 60.9732 20.7959 61.3307 20.467C61.6883 20.1381 62.1888 19.8949 62.8324 19.7376V19.566C62.4033 19.423 62.0601 19.2228 61.8027 18.9653C61.5596 18.7079 61.438 18.3504 61.438 17.8927C61.438 17.3493 61.6168 16.9417 61.9743 16.67C62.3461 16.3982 62.8324 16.1909 63.433 16.0479V15.9406C62.7752 15.626 62.2603 15.1826 61.8885 14.6106C61.5167 14.0385 61.3307 13.3449 61.3307 12.5297C61.3307 11.9147 61.438 11.3713 61.6525 10.8993C61.8813 10.4131 62.196 10.0055 62.5964 9.67657C63.0112 9.33333 63.5046 9.07591 64.0766 8.90429C64.6487 8.71837 65.2851 8.62542 65.9858 8.62542C66.7295 8.62542 67.4017 8.72552 68.0024 8.92574V8.4538C68.0024 8.02475 68.1382 7.66722 68.4099 7.38119C68.696 7.09516 69.0893 6.95215 69.5898 6.95215H71.5849V9.01155H68.9677V9.37624C69.5112 9.70517 69.9259 10.1342 70.2119 10.6634C70.5122 11.1782 70.6624 11.8003 70.6624 12.5297C70.6624 13.1447 70.548 13.6953 70.3192 14.1815C70.1047 14.6678 69.79 15.0754 69.3753 15.4043C68.9748 15.7332 68.4814 15.9906 67.8951 16.1766C67.323 16.3482 66.6866 16.434 65.9858 16.434C65.6998 16.434 65.4209 16.4268 65.1492 16.4125C64.8918 16.3839 64.6415 16.3339 64.3984 16.2624C64.1982 16.3339 64.0051 16.4483 63.8192 16.6056C63.6333 16.7629 63.5403 16.9703 63.5403 17.2277C63.5403 17.571 63.7048 17.7855 64.0337 17.8713C64.3626 17.9428 64.7559 17.9785 65.2136 17.9785H67.7235C68.4957 17.9785 69.1536 18.0572 69.6971 18.2145C70.2405 18.3575 70.6839 18.5721 71.0271 18.8581C71.3703 19.1298 71.6206 19.4587 71.7779 19.8449C71.9352 20.231 72.0139 20.6529 72.0139 21.1106ZM69.4396 21.3036C69.4396 20.9747 69.3038 20.7101 69.0321 20.5099C68.7746 20.324 68.2884 20.231 67.5733 20.231H63.7548C63.3258 20.4741 63.1113 20.8317 63.1113 21.3036C63.1113 21.6898 63.2686 22.0115 63.5832 22.269C63.9121 22.5264 64.4627 22.6551 65.235 22.6551H67.0156C68.6316 22.6551 69.4396 22.2046 69.4396 21.3036ZM65.9858 14.632C66.6866 14.632 67.2015 14.4675 67.5304 14.1386C67.8593 13.7954 68.0238 13.352 68.0238 12.8086V12.2508C68.0238 11.7074 67.8593 11.2712 67.5304 10.9422C67.2015 10.599 66.6866 10.4274 65.9858 10.4274C65.2994 10.4274 64.7917 10.599 64.4627 10.9422C64.1338 11.2712 63.9693 11.7074 63.9693 12.2508V12.8086C63.9693 13.352 64.1338 13.7954 64.4627 14.1386C64.7917 14.4675 65.2994 14.632 65.9858 14.632Z" fill="black" fill-opacity="0.88"/>
<path d="M55.31 18.0009H55.2028C54.9596 18.6016 54.5806 19.1236 54.0658 19.5669C53.5652 19.996 52.8645 20.2105 51.9635 20.2105C50.8766 20.2105 49.9899 19.853 49.3034 19.1379C48.6312 18.4085 48.2952 17.3717 48.2952 16.0273V8.88379H51.041V15.6412C51.041 17.243 51.7347 18.0438 53.1219 18.0438C53.3936 18.0438 53.6582 18.0081 53.9156 17.9366C54.1874 17.8651 54.4233 17.7578 54.6235 17.6148C54.8381 17.4575 55.0025 17.2716 55.1169 17.0571C55.2457 16.8425 55.31 16.5851 55.31 16.2848V8.88379H58.0559V19.9531H55.31V18.0009Z" fill="black" fill-opacity="0.88"/>
<path d="M35.647 4.97949H40.8598C42.2757 4.97949 43.3626 5.33703 44.1206 6.0521C44.8928 6.75287 45.279 7.71106 45.279 8.92668C45.279 9.78477 45.0645 10.4712 44.6354 10.9861C44.2207 11.5009 43.6272 11.8728 42.8549 12.1016V12.2089C43.7559 12.4234 44.4638 12.8167 44.9786 13.3887C45.5078 13.9465 45.7724 14.7402 45.7724 15.7699C45.7724 16.3992 45.6651 16.9712 45.4506 17.4861C45.2504 17.9866 44.9572 18.4228 44.5711 18.7947C44.1992 19.1665 43.7416 19.4525 43.1981 19.6527C42.669 19.853 42.0683 19.9531 41.3961 19.9531H35.647V4.97949ZM40.5381 17.9151C41.3246 17.9151 41.911 17.7721 42.2971 17.4861C42.6976 17.1858 42.8978 16.6781 42.8978 15.963V15.2551C42.8978 14.5543 42.6976 14.0609 42.2971 13.7749C41.911 13.4745 41.3246 13.3244 40.5381 13.3244H38.3928V17.9151H40.5381ZM40.1734 11.3722C40.9313 11.3722 41.4891 11.2364 41.8466 10.9646C42.2185 10.6929 42.4044 10.221 42.4044 9.5488V8.84088C42.4044 8.16871 42.2185 7.69676 41.8466 7.42503C41.4891 7.15331 40.9313 7.01744 40.1734 7.01744H38.3928V11.3722H40.1734Z" fill="black" fill-opacity="0.88"/>
<defs>
<linearGradient id="paint0_linear_1972_27525" x1="22.6542" y1="2.97761" x2="-2.90425" y2="22.6044" gradientUnits="userSpaceOnUse">
<stop stop-color="#B490FF"/>
<stop offset="1" stop-color="#5503FF"/>
</linearGradient>
</defs>
</svg>
